<?xml version="1.0" encoding="UTF-8"?>
<svg width="194px" height="204px" viewBox="0 0 194 204" version="1.1" xmlns="http://www.w3.org/2000/svg" xmlns:xlink="http://www.w3.org/1999/xlink">
    <!-- Generator: sketchtool 49.2 (51160) - http://www.bohemiancoding.com/sketch -->
    <title>57661B79-44DE-49B4-92E7-E226DA0C8C33</title>
    <desc>Created with sketchtool.</desc>
    <defs>
        <linearGradient x1="92.1684251%" y1="10.8873061%" x2="60.8432087%" y2="100%" id="linearGradient-1">
            <stop stop-color="#FF8B63" offset="0%"></stop>
            <stop stop-color="#FF1764" offset="100%"></stop>
        </linearGradient>
        <linearGradient x1="0%" y1="0%" x2="69.3649492%" y2="99.9999269%" id="linearGradient-2">
            <stop stop-color="#5EE0FE" offset="0%"></stop>
            <stop stop-color="#0293D1" offset="100%"></stop>
        </linearGradient>
    </defs>
    <g id="Page-1" stroke="none" stroke-width="1" fill="none" fill-rule="evenodd">
        <g id="Extra-large:-Desktops---Landing" transform="translate(-245.000000, -2145.000000)">
            <g id="4---SELECTED-VIDEOS" transform="translate(-112.000000, 1962.000000)">
                <g id="Award-winners" transform="translate(303.000000, 183.000000)">
                    <path d="M136.384873,68.8755778 C134.491172,62.211366 136.99344,56.8500012 136.99344,56.8500012 C136.99344,56.8500012 144.687036,58.6055871 147.418522,65.7725083 C147.602297,66.2550481 147.756341,66.7329601 147.883823,67.2046825 L148.329318,67.1399483 L158.762506,46 L169.195695,67.1399483 L170.121694,67.2745039 C170.247163,66.815307 170.397879,66.3503057 170.576765,65.8809415 C173.318577,58.7140204 180.99152,56.953271 180.99152,56.953271 C180.99152,56.953271 183.48843,62.2980819 181.616257,68.9447617 L192.144213,70.4745633 C220.848787,52.2011571 220.447164,29.0392902 220.394095,27.8105456 L224.153114,27.6608044 C224.162206,28.0244747 224.887681,59.5848458 183.188505,79.6307424 L178.137231,84.5545176 C179.979923,83.1201011 183.685474,81.0204959 188.958781,81.7793206 C196.745321,82.9204514 200.752188,88.4505469 200.752188,88.4505469 C200.752188,88.4505469 195.48543,94.3214326 187.889939,93.2216097 C180.713968,92.1762333 177.193533,86.4401242 176.834587,85.8242816 L175.643759,86.9850517 L179.628883,110.220103 L158.762506,99.25 L137.89613,110.220103 L141.881253,86.9850517 L140.951006,86.0782843 C140.03631,87.4881465 136.543742,92.1868504 130.105347,93.1235034 C122.51502,94.2233263 117.243098,88.3576041 117.243098,88.3576041 C117.243098,88.3576041 121.249965,82.8171817 129.036505,81.6760508 C132.959103,81.1112175 136.017006,82.1327536 138.085199,83.284813 L133.681764,78.9925252 C93.1206752,58.9181295 93.8331621,27.9230777 93.8421716,27.5626982 L97.5960272,27.7124393 C97.5429372,28.9335092 97.1410129,52.1214529 125.880471,70.4019568 L136.384873,68.8755778 Z M92.375741,40.6314859 C92.375741,40.6314859 85.167512,41.457644 79.8646099,35.932712 C74.5565444,30.3922895 76.2604954,22.7038561 76.2604954,22.7038561 C76.2604954,22.7038561 83.1072803,22.72451 88.5599235,28.4095102 C93.9919127,34.0841833 92.375741,40.6314859 92.375741,40.6314859 Z M104.401504,39.4438837 C104.401504,39.4438837 99.3154687,35.0239381 100.508234,27.2425619 C101.711327,19.4663492 107.287894,15.5007905 107.287894,15.5007905 C107.287894,15.5007905 113.107145,20.82951 111.935033,28.3991832 C110.768085,35.9895103 104.401504,39.4438837 104.401504,39.4438837 Z M113.974611,58.5436253 C113.974611,58.5436253 108.351572,54.8207505 108.521968,46.951595 C108.692363,39.0772761 113.706109,34.430137 113.706109,34.430137 C113.706109,34.430137 120.165633,38.9481889 120.010728,46.6056414 C119.840333,54.2734208 113.974611,58.5436253 113.974611,58.5436253 Z M133.193112,57.1236661 C133.745606,64.7656281 128.308453,69.5728353 128.308453,69.5728353 C128.308453,69.5728353 122.360115,66.3972903 121.792131,58.5436253 C121.224148,50.6899602 125.778344,45.5935977 125.778344,45.5935977 C125.778344,45.5935977 132.635456,49.4868676 133.193112,57.1236661 Z M95.0297738,23.8604774 C95.0297738,23.8604774 88.5857409,20.5558451 87.2432341,13.0171529 C85.9007272,5.46297015 91.5857274,0 91.5857274,0 C91.5857274,0 97.2604005,3.83647147 98.6390518,11.5765398 C100.017703,19.3217715 95.0297738,23.8604774 95.0297738,23.8604774 Z M98.9436975,55.4868405 C98.9436975,55.4868405 92.3137791,58.3938841 85.6012449,54.6710094 C78.8990377,50.9481346 78.2587652,43.0944696 78.2587652,43.0944696 C78.2587652,43.0944696 84.8112313,41.1168538 91.6941606,44.9275078 C98.5615994,48.7484888 98.9436975,55.4868405 98.9436975,55.4868405 Z M110.535728,68.5607917 C110.535728,68.5607917 104.72164,72.882631 97.3533433,70.7294566 C89.9953731,68.5814456 87.6150052,61.0685708 87.6150052,61.0685708 C87.6150052,61.0685708 93.5633432,57.6813228 101.122689,59.8809686 C108.666545,62.0806144 110.535728,68.5607917 110.535728,68.5607917 Z M123.501246,77.8757238 C123.501246,77.8757238 119.256859,83.7620999 111.589079,83.9376585 C103.931627,84.1287076 99.3877575,77.6743478 99.3877575,77.6743478 C99.3877575,77.6743478 104.034897,72.6502741 111.904052,72.459225 C119.762881,72.268176 123.501246,77.8757238 123.501246,77.8757238 Z M225.624709,40.7399192 C225.624709,40.7399192 223.99821,34.19778 229.435363,28.5127799 C234.893169,22.8329433 241.739954,22.8019624 241.739954,22.8019624 C241.739954,22.8019624 243.443905,30.4955593 238.13584,36.0308182 C232.832938,41.5660772 225.624709,40.7399192 225.624709,40.7399192 Z M206.060253,28.5076164 C204.893305,20.9379432 210.712556,15.6195508 210.712556,15.6195508 C210.712556,15.6195508 216.289122,19.5799459 217.492215,27.3613221 C218.674654,35.1375348 213.593782,39.5523169 213.593782,39.5523169 C213.593782,39.5523169 207.227201,36.0927801 206.060253,28.5076164 Z M204.29434,34.5334068 C204.29434,34.5334068 209.302923,39.1960363 209.478482,47.0548648 C209.643714,54.9188568 204.020675,58.646895 204.020675,58.646895 C204.020675,58.646895 198.154953,54.3663636 197.984558,46.7089111 C197.834817,39.0514586 204.29434,34.5334068 204.29434,34.5334068 Z M184.802174,57.2320993 C185.370157,49.5849738 192.216942,45.6865405 192.216942,45.6865405 C192.216942,45.6865405 196.765975,50.7880665 196.203155,58.6417315 C195.624844,66.50056 189.686833,69.6657781 189.686833,69.6657781 C189.686833,69.6657781 184.254844,64.8688979 184.802174,57.2320993 Z M222.970676,23.9689106 C222.970676,23.9689106 217.982746,19.4302048 219.366561,11.6798095 C220.734886,3.93974123 226.414722,0.103269757 226.414722,0.103269757 C226.414722,0.103269757 232.104886,5.5662399 230.762379,13.1204226 C229.414709,20.6642784 222.970676,23.9689106 222.970676,23.9689106 Z M226.295962,45.035941 C233.178891,41.21496 239.731357,43.1977394 239.731357,43.1977394 C239.731357,43.1977394 239.091085,51.0565679 232.388878,54.7794426 C225.681507,58.5023174 219.046425,55.5901102 219.046425,55.5901102 C219.046425,55.5901102 219.428523,48.8517586 226.295962,45.035941 Z M216.867433,59.9945653 C224.426779,57.789756 230.385444,61.187331 230.385444,61.187331 C230.385444,61.187331 228.005076,68.7053694 220.647106,70.8482168 C213.278809,72.9910643 207.454395,68.6743884 207.454395,68.6743884 C207.454395,68.6743884 209.323577,62.1942112 216.867433,59.9945653 Z M206.091234,72.5676583 C213.970716,72.7638708 218.607529,77.7879445 218.607529,77.7879445 C218.607529,77.7879445 214.063659,84.2371408 206.406207,84.0512553 C198.733264,83.8705332 194.49404,77.9893205 194.49404,77.9893205 C194.49404,77.9893205 198.232405,72.3766092 206.091234,72.5676583 Z" id="Combined-Shape" fill="url(#linearGradient-1)" fill-rule="nonzero"></path>
                    <polygon id="Star" fill="#D8D8D8" points="141.066062 38.7217393 136.080962 41.3425618 137.033031 35.7915708 133 31.8603371 138.573512 31.0504584 141.066062 26 143.558612 31.0504584 149.132124 31.8603371 145.099093 35.7915708 146.051163 41.3425618"></polygon>
                    <polygon id="Star-Copy" fill="#D8D8D8" points="159.066062 30.7217393 154.080962 33.3425618 155.033031 27.7915708 151 23.8603371 156.573512 23.0504584 159.066062 18 161.558612 23.0504584 167.132124 23.8603371 163.099093 27.7915708 164.051163 33.3425618"></polygon>
                    <polygon id="Star-Copy-2" fill="#D8D8D8" points="176.066062 38.7217393 171.080962 41.3425618 172.033031 35.7915708 168 31.8603371 173.573512 31.0504584 176.066062 26 178.558612 31.0504584 184.132124 31.8603371 180.099093 35.7915708 181.051163 41.3425618"></polygon>
                    <text font-family="Montserrat-ExtraBoldItalic, Montserrat" font-size="48" font-style="italic" font-weight="600" line-spacing="44" letter-spacing="-1.86000001" fill="#2EB7E6">
                        <tspan x="26.652" y="152.776123">Award </tspan>
                        <tspan x="10.0800001" y="196.776123">winners</tspan>
                        <tspan x="203.46" y="196.776123"> </tspan>
                    </text>
                    <path d="M94.092,152.472 L79.788,152.472 L75.9,159 L65.868,159 L87.42,125.4 L96.78,125.4 L104.892,159 L95.436,159 L94.092,152.472 Z M92.652,145.464 L90.396,134.568 L83.964,145.464 L92.652,145.464 Z M152.616,132.984 L138.408,159 L129.384,159 L126.936,144.84 L119.304,159 L110.376,159 L105.96,132.984 L114.312,132.984 L116.664,148.632 L125.256,132.984 L133.08,132.984 L135.48,148.632 L144.072,132.984 L152.616,132.984 Z M180.18,132.984 L174.996,159 L166.356,159 L166.884,156.552 C164.80399,158.47201 162.292015,159.432 159.348,159.432 C157.42799,159.432 155.628008,158.960005 153.948,158.016 C152.267992,157.071995 150.916005,155.704009 149.892,153.912 C148.867995,152.119991 148.356,150.008012 148.356,147.576 C148.356,144.759986 148.987994,142.208011 150.252,139.92 C151.516006,137.631989 153.227989,135.832007 155.388,134.52 C157.548011,133.207993 159.907987,132.552 162.468,132.552 C166.244019,132.552 168.899992,133.735988 170.436,136.104 L171.06,132.984 L180.18,132.984 Z M162.516,152.088 C164.340009,152.088 165.827994,151.416007 166.98,150.072 C168.132006,148.727993 168.708,146.984011 168.708,144.84 C168.708,143.303992 168.268004,142.088004 167.388,141.192 C166.507996,140.295996 165.300008,139.848 163.764,139.848 C161.939991,139.848 160.452006,140.519993 159.3,141.864 C158.147994,143.208007 157.572,144.967989 157.572,147.144 C157.572,148.680008 158.011996,149.887996 158.892,150.768 C159.772004,151.648004 160.979992,152.088 162.516,152.088 Z M192.24,135.864 C194.416011,133.655989 197.55198,132.552 201.648,132.552 L200.064,140.76 C199.263996,140.664 198.576003,140.616 198,140.616 C195.95199,140.616 194.312006,141.103995 193.08,142.08 C191.847994,143.056005 191.024002,144.599989 190.608,146.712 L188.112,159 L178.992,159 L184.176,132.984 L192.816,132.984 L192.24,135.864 Z M232.812,123.384 L225.708,159 L217.068,159 L217.596,156.456 C215.51599,158.44001 213.004015,159.432 210.06,159.432 C208.13999,159.432 206.340008,158.960005 204.66,158.016 C202.979992,157.071995 201.628005,155.704009 200.604,153.912 C199.579995,152.119991 199.068,150.008012 199.068,147.576 C199.068,144.759986 199.699994,142.208011 200.964,139.92 C202.228006,137.631989 203.947989,135.832007 206.124,134.52 C208.300011,133.207993 210.667987,132.552 213.228,132.552 C216.940019,132.552 219.579992,133.703988 221.148,136.008 L223.692,123.384 L232.812,123.384 Z M213.228,152.088 C215.052009,152.088 216.539994,151.416007 217.692,150.072 C218.844006,148.727993 219.42,146.984011 219.42,144.84 C219.42,143.303992 218.988004,142.088004 218.124,141.192 C217.259996,140.295996 216.060008,139.848 214.524,139.848 C212.699991,139.848 211.212006,140.519993 210.06,141.864 C208.907994,143.208007 208.332,144.967989 208.332,147.144 C208.332,148.680008 208.763996,149.887996 209.628,150.768 C210.492004,151.648004 211.691992,152.088 213.228,152.088 Z M101.568,176.984 L87.3600001,203 L78.3360001,203 L75.8880001,188.84 L68.2560001,203 L59.3280001,203 L54.9120001,176.984 L63.2640001,176.984 L65.6160001,192.632 L74.2080001,176.984 L82.0320001,176.984 L84.4320001,192.632 L93.0240001,176.984 L101.568,176.984 Z M102.348,176.984 L111.42,176.984 L106.236,203 L97.164,203 L102.348,176.984 Z M108.156,174.104 C106.587992,174.104 105.324005,173.672004 104.364,172.808 C103.403995,171.943996 102.924,170.872006 102.924,169.592 C102.924,168.087992 103.459995,166.848005 104.532,165.872 C105.604005,164.895995 107.019991,164.408 108.78,164.408 C110.380008,164.408 111.659995,164.815996 112.62,165.632 C113.580005,166.448004 114.06,167.495994 114.06,168.776 C114.06,170.344008 113.516005,171.623995 112.428,172.616 C111.339995,173.608005 109.916009,174.104 108.156,174.104 Z M131.736,176.552 C134.584014,176.552 136.863991,177.311992 138.576,178.832 C140.288009,180.352008 141.144,182.535986 141.144,185.384 C141.144,186.440005 141.032001,187.511995 140.808,188.6 L137.928,203 L128.808,203 L131.496,189.464 C131.624001,188.919997 131.688,188.344003 131.688,187.736 C131.688,185.431988 130.488012,184.28 128.088,184.28 C126.487992,184.28 125.176005,184.767995 124.152,185.744 C123.127995,186.720005 122.408002,188.18399 121.992,190.136 L119.4,203 L110.28,203 L115.464,176.984 L124.104,176.984 L123.576,179.672 C124.696006,178.615995 125.959993,177.832003 127.368,177.32 C128.776007,176.807997 130.231993,176.552 131.736,176.552 Z M163.284,176.552 C166.132014,176.552 168.411991,177.311992 170.124,178.832 C171.836009,180.352008 172.692,182.535986 172.692,185.384 C172.692,186.440005 172.580001,187.511995 172.356,188.6 L169.476,203 L160.356,203 L163.044,189.464 C163.172001,188.919997 163.236,188.344003 163.236,187.736 C163.236,185.431988 162.036012,184.28 159.636,184.28 C158.035992,184.28 156.724005,184.767995 155.7,185.744 C154.675995,186.720005 153.956002,188.18399 153.54,190.136 L150.948,203 L141.828,203 L147.012,176.984 L155.652,176.984 L155.124,179.672 C156.244006,178.615995 157.507993,177.832003 158.916,177.32 C160.324007,176.807997 161.779992,176.552 163.284,176.552 Z M203.184,187.976 C203.184,189.224006 203.008002,190.647992 202.656,192.248 L183.552,192.248 C183.872002,195.064014 185.839982,196.472 189.456,196.472 C190.608006,196.472 191.727995,196.296002 192.816,195.944 C193.904005,195.591998 194.879996,195.064004 195.744,194.36 L199.536,200.072 C196.495985,202.312011 192.800022,203.432 188.448,203.432 C185.695986,203.432 183.27201,202.944005 181.176,201.968 C179.07999,200.991995 177.464006,199.616009 176.328,197.84 C175.191994,196.063991 174.624,193.976012 174.624,191.576 C174.624,188.727986 175.287993,186.160011 176.616,183.872 C177.944007,181.583989 179.799988,179.792006 182.184,178.496 C184.568012,177.199994 187.295985,176.552 190.368,176.552 C192.960013,176.552 195.22399,177.023995 197.16,177.968 C199.09601,178.912005 200.583995,180.247991 201.624,181.976 C202.664005,183.704009 203.184,185.703989 203.184,187.976 Z M189.936,183.032 C188.463993,183.032 187.232005,183.423996 186.24,184.208 C185.247995,184.992004 184.528002,186.071993 184.08,187.448 L194.784,187.448 C194.816,186.071993 194.384004,184.992004 193.488,184.208 C192.591996,183.423996 191.408007,183.032 189.936,183.032 Z M215.772,179.864 C217.948011,177.655989 221.083979,176.552 225.18,176.552 L223.596,184.76 C222.795996,184.664 222.108003,184.616 221.532,184.616 C219.48399,184.616 217.844006,185.103995 216.612,186.08 C215.379994,187.056005 214.556002,188.599989 214.14,190.712 L211.644,203 L202.524,203 L207.708,176.984 L216.348,176.984 L215.772,179.864 Z M232.056,203.432 C229.815989,203.432 227.66401,203.192002 225.6,202.712 C223.53599,202.231998 221.928006,201.624004 220.776,200.888 L224.088,194.504 C225.272006,195.240004 226.679992,195.823998 228.312,196.256 C229.944008,196.688002 231.543992,196.904 233.112,196.904 C235.896014,196.904 237.288,196.280006 237.288,195.032 C237.288,194.519997 236.960003,194.144001 236.304,193.904 C235.647997,193.663999 234.600007,193.432001 233.16,193.208 C231.23999,192.855998 229.664006,192.480002 228.432,192.08 C227.199994,191.679998 226.120005,191.000005 225.192,190.04 C224.263995,189.079995 223.8,187.736009 223.8,186.008 C223.8,182.999985 225.087987,180.672008 227.664,179.024 C230.240013,177.375992 233.575979,176.552 237.672,176.552 C239.528009,176.552 241.319991,176.735998 243.048,177.104 C244.776009,177.472002 246.279994,177.975997 247.56,178.616 L244.344,185 C242.167989,183.687993 239.592015,183.032 236.616,183.032 C235.207993,183.032 234.160003,183.215998 233.472,183.584 C232.783997,183.952002 232.44,184.423997 232.44,185 C232.44,185.512003 232.767997,185.887999 233.424,186.128 C234.080003,186.368001 235.159992,186.631999 236.664,186.92 C238.520009,187.240002 240.063994,187.607998 241.296,188.024 C242.528006,188.440002 243.599995,189.127995 244.512,190.088 C245.424005,191.048005 245.88,192.359992 245.88,194.024 C245.88,197.032015 244.584013,199.351992 241.992,200.984 C239.399987,202.616008 236.08802,203.432 232.056,203.432 Z" fill="url(#linearGradient-2)"></path>
                </g>
            </g>
        </g>
    </g>
</svg>
