<?xml version="1.0" encoding="UTF-8"?>
<svg width="1440px" height="1058px" viewBox="0 0 1440 1058" version="1.1" xmlns="http://www.w3.org/2000/svg" xmlns:xlink="http://www.w3.org/1999/xlink">
    <!-- Generator: sketchtool 49.2 (51160) - http://www.bohemiancoding.com/sketch -->
    <title>7621CBFD-F3DC-4CC6-8FCB-808725E0428D</title>
    <desc>Created with sketchtool.</desc>
    <defs>
        <linearGradient x1="69.8539795%" y1="133.925533%" x2="51.9764899%" y2="7.2158335%" id="linearGradient-1">
            <stop stop-color="#6FCBFA" offset="0%"></stop>
            <stop stop-color="#B622B4" stop-opacity="0.471014493" offset="51.4450867%"></stop>
            <stop stop-color="#6FCBFA" offset="100%"></stop>
        </linearGradient>
        <linearGradient x1="50%" y1="4.57315391%" x2="50%" y2="96.6664652%" id="linearGradient-2">
            <stop stop-color="#FF3DD5" stop-opacity="0" offset="0%"></stop>
            <stop stop-color="#01C782" offset="100%"></stop>
        </linearGradient>
        <linearGradient x1="50%" y1="6.70247903%" x2="50%" y2="96.6664652%" id="linearGradient-3">
            <stop stop-color="#66DEFF" stop-opacity="0" offset="0%"></stop>
            <stop stop-color="#09F4FF" offset="100%"></stop>
        </linearGradient>
        <path d="M16.9834594,23.5538194 C16.9834594,23.5538194 1166.98737,-29.4422743 1166.98737,23.5538194 C1166.98737,76.5499132 1127.60729,146.245809 1044.29538,146.245809 C960.983459,146.245809 914.971741,73.1229044 839.979553,73.1229044 C764.987366,73.1229044 725.987366,244.549913 591.985412,244.549913 C457.983459,244.549913 276.987366,323.557726 215.983459,423.553819 C154.979553,523.549913 35.9834594,559.553819 9.98345936,559.553819 C-16.0165406,559.553819 16.9834594,23.5538194 16.9834594,23.5538194 Z" id="path-4"></path>
        <linearGradient x1="33.5043286%" y1="106.080262%" x2="49.2972556%" y2="3.67643901%" id="linearGradient-6">
            <stop stop-color="#FF4CA9" stop-opacity="0.608695652" offset="0%"></stop>
            <stop stop-color="#00ACE9" offset="100%"></stop>
        </linearGradient>
        <linearGradient x1="50%" y1="4.57315391%" x2="50%" y2="97.2176959%" id="linearGradient-7">
            <stop stop-color="#AFDCFF" stop-opacity="0.434782609" offset="0%"></stop>
            <stop stop-color="#00E9FF" offset="100%"></stop>
        </linearGradient>
        <linearGradient x1="82.4530072%" y1="6.12921257%" x2="13.7712383%" y2="87.0044172%" id="linearGradient-8">
            <stop stop-color="#DDF2FD" offset="1.73636199%"></stop>
            <stop stop-color="#FF9B9B" offset="100%"></stop>
        </linearGradient>
        <linearGradient x1="81.5188704%" y1="84.7967166%" x2="16.9973704%" y2="7.10835152%" id="linearGradient-9">
            <stop stop-color="#FF8B63" offset="0%"></stop>
            <stop stop-color="#FF1764" offset="100%"></stop>
        </linearGradient>
        <linearGradient x1="82.4530072%" y1="6.12921257%" x2="13.7712383%" y2="87.0044172%" id="linearGradient-10">
            <stop stop-color="#DDF2FD" offset="0%"></stop>
            <stop stop-color="#FF9B9B" offset="100%"></stop>
        </linearGradient>
        <linearGradient x1="10.6660943%" y1="81.7050756%" x2="87.4625664%" y2="12.9080149%" id="linearGradient-11">
            <stop stop-color="#0097F6" offset="0%"></stop>
            <stop stop-color="#00E9B4" offset="100%"></stop>
        </linearGradient>
        <linearGradient x1="50.0043191%" y1="99.9991352%" x2="50.0043191%" y2="-0.00191082415%" id="linearGradient-12">
            <stop stop-color="#FF8B63" offset="0%"></stop>
            <stop stop-color="#FF1764" offset="100%"></stop>
        </linearGradient>
        <linearGradient x1="146.079033%" y1="50.001743%" x2="-1.33678375%" y2="50.001743%" id="linearGradient-13">
            <stop stop-color="#B622B4" offset="0%"></stop>
            <stop stop-color="#6FCBFA" offset="100%"></stop>
        </linearGradient>
        <linearGradient x1="75.627621%" y1="-10.0754015%" x2="68.8483769%" y2="100%" id="linearGradient-14">
            <stop stop-color="#FF8B63" offset="0%"></stop>
            <stop stop-color="#FF1764" offset="100%"></stop>
        </linearGradient>
        <linearGradient x1="47.9452767%" y1="6.96710309%" x2="3.63523709%" y2="80.8537866%" id="linearGradient-15">
            <stop stop-color="#5728FF" stop-opacity="0.101449275" offset="0%"></stop>
            <stop stop-color="#3B5DFF" offset="100%"></stop>
        </linearGradient>
        <linearGradient x1="47.9452767%" y1="6.96710309%" x2="3.63523709%" y2="80.8537866%" id="linearGradient-16">
            <stop stop-color="#288FFF" stop-opacity="0" offset="0%"></stop>
            <stop stop-color="#3B5DFF" offset="100%"></stop>
        </linearGradient>
        <linearGradient x1="50%" y1="4.57315391%" x2="50%" y2="96.6664652%" id="linearGradient-17">
            <stop stop-color="#66DEFF" stop-opacity="0.101449275" offset="2.31213873%"></stop>
            <stop stop-color="#09F4FF" offset="100%"></stop>
        </linearGradient>
        <path d="M17,24 C17,24 1167.00391,-28.9960937 1167.00391,24 C1167.00391,76.9960937 1127.62383,146.691989 1044.31192,146.691989 C961,146.691989 914.988281,73.569085 839.996094,73.569085 C765.003906,73.569085 726.003906,244.996094 592.001953,244.996094 C458,244.996094 277.003906,324.003906 216,424 C154.996094,523.996094 36,560 10,560 C-16,560 17,24 17,24 Z" id="path-18"></path>
        <linearGradient x1="153.94955%" y1="-0.13072533%" x2="98.6011674%" y2="100.27706%" id="linearGradient-20">
            <stop stop-color="#FF8B63" offset="0%"></stop>
            <stop stop-color="#FF1764" offset="100%"></stop>
        </linearGradient>
        <path d="M408.7526,88 C434.8986,109.369 420.8186,142.748 454.2416,170.851 C476.8956,189.899 513.1096,199.574 543.1716,187.525 C579.5146,172.96 604.9656,127.411 597.5186,93.036 C597.1466,91.319 596.7066,89.643 596.1996,88 L408.7526,88 Z M44,88 L44,273.462 C47.614,278.006 51.501,282.36 55.66,286.5 C56.379,287.215 57.109,287.919 57.849,288.614 C78.438,307.915 105.957,317.554 130.928,330.701 C168.9296,350.707 189.5536,383.836 200.7946,424.5318 C204.0036,436.1478 207.3346,446.7628 215.2396,456.1698 C244.3356,490.7918 297.4566,489.1958 304.1706,488.9018 C361.0656,486.4068 416.8636,442.7588 433.0676,389.4718 C444.2316,352.764 438.5846,294.606 404.8356,266.575 C384.3086,249.526 360.5756,251.436 337.1796,253.346 C313.7406,255.259 290.6386,257.172 271.4396,240.02 C243.4156,214.983 238.6226,162.656 259.0876,125.151 C267.9886,108.839 280.9816,96.585 295.8216,88 L44,88 Z" id="path-21"></path>
        <filter x="-11.4%" y="-14.0%" width="128.5%" height="139.4%" filterUnits="objectBoundingBox" id="filter-22">
            <feOffset dx="16" dy="23" in="SourceAlpha" result="shadowOffsetOuter1"></feOffset>
            <feGaussianBlur stdDeviation="22.5" in="shadowOffsetOuter1" result="shadowBlurOuter1"></feGaussianBlur>
            <feColorMatrix values="0 0 0 0 0.199271628   0 0 0 0 0.199271628   0 0 0 0 0.986394558  0 0 0 0.637681159 0" type="matrix" in="shadowBlurOuter1"></feColorMatrix>
        </filter>
    </defs>
    <g id="Page-1" stroke="none" stroke-width="1" fill="none" fill-rule="evenodd">
        <g id="Extra-large:-Desktops---Landing" transform="translate(0.000000, -1023.000000)">
            <g id="3---REASONS" transform="translate(-37.000000, 1023.000000)">
                <g id="bg" transform="translate(-27.000000, -115.000000)">
                    <g id="Bg-Bottom" transform="translate(179.000000, 349.000000)">
                        <path d="M1175,425 C1149.87379,479.877471 1266.1547,481.903597 1273,512 C1277.6687,532.520817 1184,548 1175,628 C1159.71691,763.849661 1383,789 1372,894 C1401.98311,885.955751 1386.68706,808.213493 1326.11186,660.773227 L1363,281 C1337.00391,453 1200.12621,370.122529 1175,425 Z" id="Fill-4" fill="url(#linearGradient-1)"></path>
                        <path d="M198.983459,191.553819 C198.983459,191.553819 1348.98737,138.557726 1348.98737,191.553819 C1348.98737,244.549913 1309.60729,314.245809 1226.29538,314.245809 C1142.98346,314.245809 1096.97174,241.122904 1021.97955,241.122904 C946.987366,241.122904 907.987366,412.549913 773.985412,412.549913 C639.983459,412.549913 458.987366,491.557726 397.983459,591.553819 C336.979553,691.549913 217.983459,727.553819 191.983459,727.553819 C165.983459,727.553819 198.983459,191.553819 198.983459,191.553819 Z" id="Path-5-Copy-2" fill="url(#linearGradient-2)" transform="translate(765.493683, 447.776910) scale(-1, -1) translate(-765.493683, -447.776910) "></path>
                        <path d="M208.983459,201.553819 C208.983459,201.553819 1358.98737,148.557726 1358.98737,201.553819 C1358.98737,254.549913 1319.60729,324.245809 1236.29538,324.245809 C1152.98346,324.245809 1106.97174,251.122904 1031.97955,251.122904 C956.987366,251.122904 917.987366,422.549913 783.985412,422.549913 C649.983459,422.549913 468.987366,501.557726 407.983459,601.553819 C346.979553,701.549913 227.983459,737.553819 201.983459,737.553819 C175.983459,737.553819 208.983459,201.553819 208.983459,201.553819 Z" id="Path-5-Copy-2" fill="url(#linearGradient-2)" opacity="0.413043478" transform="translate(775.493683, 457.776910) scale(-1, -1) translate(-775.493683, -457.776910) "></path>
                        <g id="Group" transform="translate(179.000000, 164.000000)">
                            <mask id="mask-5" fill="white">
                                <use xlink:href="#path-4"></use>
                            </mask>
                            <use id="Path-5-Copy-3" fill="url(#linearGradient-3)" transform="translate(583.493683, 279.776910) scale(-1, -1) translate(-583.493683, -279.776910) " xlink:href="#path-4"></use>
                            <path d="M1049.61355,148.967042 C1030.90346,170.394887 1014.91658,191.478109 990.681317,207.010079 C965.415703,223.201757 930.110378,226.091671 904.501551,220.212675 C882.544295,215.171326 859.513089,212.000086 837.134553,216.680636 C817.774189,220.729611 798.992366,233.721776 786.24914,248.952024 C780.875169,255.375384 776.201692,262.663116 772.26317,270.400265 L1431.71006,287.954263 C1464.73751,252.977186 1467.73621,222.311821 1440.70616,195.958169 C1398.09982,154.418014 1318.70616,208.958169 1256.70616,161.958169 C1211.99809,128.066572 1229.70616,76.9581691 1155.70616,80.9581691 C1116.18208,83.0946058 1075.36444,119.476414 1049.61355,148.967042 Z" id="Fill-1" fill="url(#linearGradient-6)" opacity="0.384057971" mask="url(#mask-5)" transform="translate(1115.608717, 184.345546) rotate(-90.000000) translate(-1115.608717, -184.345546) "></path>
                            <path d="M725.72233,-105.194881 C747.165112,-128.432866 1579.36552,-24.0816623 1579.36552,28.9144315 C1579.36552,81.9105252 1532.9951,154.084283 1449.68318,154.084283 C1366.37126,154.084283 1313.89375,65.8948043 1238.90157,65.8948043 C1163.90938,65.8948043 1106.09386,155.125019 940.809977,139.117162 C775.526099,123.109305 704.279548,-81.956895 725.72233,-105.194881 Z" id="Path-5-Copy" fill="url(#linearGradient-7)" opacity="0.442028986" mask="url(#mask-5)" transform="translate(1150.684748, 22.782548) scale(-1, -1) rotate(-98.000000) translate(-1150.684748, -22.782548) "></path>
                        </g>
                        <path d="M1094.87991,626.918739 C1080.76766,643.784053 1084.04902,664.782983 1085.05439,671.216832 C1086.10396,677.931834 1092.37718,710.923353 1121.89882,721.14428 C1149.74114,730.784591 1182.83705,714.828124 1197.22453,691.111808 C1210.37704,669.433139 1209.91215,637.950435 1187.80828,619.035967 C1160.44797,595.620421 1114.27228,603.7425 1094.87991,626.918739 Z" id="Fill-7" fill="url(#linearGradient-8)"></path>
                        <path d="M0.833201835,85.8634577 C1.1601136,86.7641351 1.58893713,87.6462964 2.13158419,88.4993609 C7.16364301,96.4123609 18.7392312,106.132006 28.6776136,101.458006 C29.8767312,100.894587 30.9924665,100.159232 32.0221724,99.3273286 C47.4770254,86.8196835 45.2932018,75.2947157 34.250996,67.7282319 C27.703496,63.2420383 18.0112901,61.5504577 10.5042312,64.4019415 C6.40129007,65.9612641 3.21820183,69.0415545 1.61276066,73.1349415 C-0.00988640051,77.2732964 -0.647827577,81.768748 0.833201835,85.8634577 Z" id="Fill-13" fill="url(#linearGradient-9)" opacity="0.326143569"></path>
                        <path d="M1267.96713,16.4499313 C1267.40517,17.8319713 1266.98172,19.2998113 1266.71921,20.8547713 C1264.28802,35.2678513 1267.54104,58.5948913 1283.90904,63.5435713 C1285.88381,64.1402113 1287.94168,64.4543713 1289.99955,64.5626113 C1320.91908,66.1914913 1330.41168,50.5679713 1325.52951,30.2901313 C1322.6353,18.2662513 1313.18887,6.20013128 1301.53287,1.67649128 C1295.16138,-0.797188725 1288.26751,-0.547708725 1282.14138,2.51997128 C1275.94798,5.61933128 1270.52364,10.1601313 1267.96713,16.4499313 Z" id="Fill-10" fill="url(#linearGradient-10)"></path>
                        <path d="M1208.0848,141.227051 C1195.00388,158.329595 1198.04543,179.623899 1198.97733,186.148247 C1199.9502,192.957703 1205.76497,226.413286 1233.12916,236.777982 C1258.93674,246.553895 1289.61399,230.372982 1302.95002,206.323069 C1315.14134,184.339464 1314.71042,152.413921 1294.22192,133.233399 C1268.86111,109.488486 1226.05996,117.724812 1208.0848,141.227051 Z" id="Fill-7" fill="url(#linearGradient-11)" opacity="0.557971014"></path>
                        <path d="M865.648224,590.111224 C862.579685,593.574451 863.293176,597.8865 863.511782,599.207665 C863.74,600.586565 865.104036,607.361245 871.523162,609.460073 C877.577138,611.439673 884.773445,608.163075 887.901829,603.293021 C890.761685,598.841391 890.6606,592.37654 885.85438,588.492528 C879.905209,583.684236 869.864861,585.352074 865.648224,590.111224 Z" id="Fill-7" fill="url(#linearGradient-11)" opacity="0.557971014" transform="translate(876.546234, 597.828390) rotate(56.000000) translate(-876.546234, -597.828390) "></path>
                        <path d="M1296.89278,199.382435 C1294.34478,203.525856 1297.41411,212.635066 1304.01944,215.073224 C1312.88478,218.346909 1321.22211,213.517961 1318.51544,200.46533 C1317.26078,194.419277 1305.45944,185.450856 1296.89278,199.382435 Z" id="Fill-16" fill="url(#linearGradient-12)"></path>
                        <path d="M1265.51065,345.451882 C1261.35265,346.358353 1257.34559,353.993 1259.6989,359.798471 C1262.85809,367.591412 1270.88665,370.026706 1277.62897,360.188118 C1280.43509,356.094118 1279.70665,345 1269.38778,345 C1268.22097,345 1266.93209,345.142059 1265.51065,345.451882 Z" id="Fill-19" fill="url(#linearGradient-13)"></path>
                        <path d="M1291.24795,829.167697 C1318.845,825.550205 1359.2869,768.996115 1328.19261,741.658896 C1308.90873,724.705914 1266.09927,727.804328 1249.80622,747.363403 C1223.54517,778.886693 1244.94702,835.237432 1291.24795,829.167697 Z" id="Fill-31" fill="url(#linearGradient-14)" transform="translate(1288.924116, 780.120937) rotate(53.000000) translate(-1288.924116, -780.120937) "></path>
                        <path d="M1345.26085,578.634665 C1378.59589,573.652699 1427.4465,495.767091 1389.88707,458.118603 C1366.59367,434.771161 1314.88323,439.03826 1295.20252,465.974782 C1263.48125,509.388275 1289.33299,586.993831 1345.26085,578.634665 Z" id="Fill-31-Copy" fill="url(#linearGradient-14)" transform="translate(1342.453836, 511.088061) rotate(13.000000) translate(-1342.453836, -511.088061) "></path>
                    </g>
                    <g id="Bg-Top">
                        <g id="Group-26" transform="translate(16.000000, 0.000000)">
                            <path d="M21.9834594,31.5538194 C21.9834594,31.5538194 1171.98737,-21.4422743 1171.98737,31.5538194 C1171.98737,84.5499132 1132.60729,154.245809 1049.29538,154.245809 C965.983459,154.245809 919.971741,81.1229044 844.979553,81.1229044 C769.987366,81.1229044 730.987366,252.549913 596.985412,252.549913 C462.983459,252.549913 281.987366,331.557726 220.983459,431.553819 C159.979553,531.549913 40.9834594,567.553819 14.9834594,567.553819 C-11.0165406,567.553819 21.9834594,31.5538194 21.9834594,31.5538194 Z" id="Path-5" fill="url(#linearGradient-15)"></path>
                            <path d="M21.9834594,23.5538194 C21.9834594,23.5538194 1171.98737,-29.4422743 1171.98737,23.5538194 C1171.98737,76.5499132 1132.60729,146.245809 1049.29538,146.245809 C965.983459,146.245809 919.971741,73.1229044 844.979553,73.1229044 C769.987366,73.1229044 730.987366,244.549913 596.985412,244.549913 C462.983459,244.549913 281.987366,323.557726 220.983459,423.553819 C159.979553,523.549913 40.9834594,559.553819 14.9834594,559.553819 C-11.0165406,559.553819 21.9834594,23.5538194 21.9834594,23.5538194 Z" id="Path-5" fill="url(#linearGradient-16)"></path>
                            <g id="Group-7" transform="translate(0.000000, 23.000000)">
                                <mask id="mask-19" fill="white">
                                    <use xlink:href="#path-18"></use>
                                </mask>
                                <use id="Path-5-Copy-4" fill="url(#linearGradient-17)" xlink:href="#path-18"></use>
                                <g id="Fill-1" mask="url(#mask-19)">
                                    <use fill="black" fill-opacity="1" filter="url(#filter-22)" xlink:href="#path-21"></use>
                                    <use fill="url(#linearGradient-20)" fill-rule="evenodd" xlink:href="#path-21"></use>
                                </g>
                            </g>
                        </g>
                        <path d="M108.240195,476.270015 C86.3706324,480.829256 65.3001062,519.221008 77.6754268,548.423201 C94.2862902,587.608979 136.508545,599.855535 171.971472,550.376247 C186.724413,529.786665 182.881893,474.009605 128.622121,474 C122.48643,474 115.714109,474.713982 108.240195,476.270015 Z" id="Fill-22" fill="url(#linearGradient-11)" opacity="0.557971014"></path>
                        <path d="M448.928236,155.391531 C489.640704,150.531652 549.302518,74.5546994 503.430754,37.8288213 C474.982257,15.0535288 411.827702,19.2160586 387.791426,45.4924772 C349.049877,87.842084 380.622898,163.545848 448.928236,155.391531 Z" id="Fill-13" fill="url(#linearGradient-11)" opacity="0.557971014"></path>
                        <path d="M8.93997258,342.979977 C24.1349726,372.003977 55.4459726,381.404977 65.0379726,384.284977 C75.0515726,387.290977 124.908573,400.627977 156.743573,369.399977 C186.767573,339.947977 184.124573,287.176177 159.515573,253.359177 C137.019573,222.446177 92.7225726,202.640177 53.1419726,218.722177 C4.14297258,238.630177 -11.9410274,303.096177 8.93997258,342.979977 Z" id="Fill-4" fill="url(#linearGradient-1)"></path>
                    </g>
                </g>
            </g>
        </g>
    </g>
</svg>
