<?xml version="1.0" encoding="UTF-8"?>
<svg width="30px" height="31px" viewBox="0 0 30 31" version="1.1" xmlns="http://www.w3.org/2000/svg" xmlns:xlink="http://www.w3.org/1999/xlink">
    <!-- Generator: sketchtool 49.2 (51160) - http://www.bohemiancoding.com/sketch -->
    <title>A21B3548-819D-4B41-A9D2-E31F11213A29</title>
    <desc>Created with sketchtool.</desc>
    <defs></defs>
    <g id="Symbols" stroke="none" stroke-width="1" fill="none" fill-rule="evenodd">
        <g id="Watermarks-/-Over-Video-/-Logo-Color-LTS" transform="translate(-10.000000, -10.000000)" fill="#ECECEC">
            <path d="M23.2828402,40.4137726 C20.8820177,40.4135726 18.7127682,38.9405972 17.8270456,36.7092053 L10.373565,17.9285351 C10.1265286,17.2695642 10,16.5717127 10,15.8680846 C10,12.6489919 12.6490363,10 15.8682846,10 C18.2272715,10 20.3667496,11.422364 21.2794887,13.5976789 L28.7375905,32.3803487 C29.0100214,33.0684245 29.1499472,33.801824 29.1499472,34.5418887 C29.1499472,37.7613148 26.502244,40.4111509 23.2828402,40.4137726 Z M33.2350262,27.0737001 C30.8350036,27.0728115 28.6668205,25.6002359 27.7812312,23.3695995 L25.6797672,18.0818358 C25.393517,17.3788743 25.2463039,16.6272564 25.2463039,15.8683068 C25.2463039,12.6489919 27.8953402,10 31.1145663,10 C33.5334071,10 35.7151651,11.4954596 36.5876461,13.7514239 L38.6871993,19.0391876 C38.959808,19.7277078 39.1000004,20.4615516 39.1000004,21.2018385 C39.1000004,24.420487 36.4534524,27.0699232 33.2350262,27.0737001 Z" id="Combined-Shape"></path>
        </g>
    </g>
</svg>
