<?xml version="1.0" encoding="UTF-8"?>
<svg width="100px" height="68px" viewBox="0 0 100 68" version="1.1" xmlns="http://www.w3.org/2000/svg" xmlns:xlink="http://www.w3.org/1999/xlink">
    <!-- Generator: sketchtool 49.2 (51160) - http://www.bohemiancoding.com/sketch -->
    <title>43F6A7C1-6868-4773-A9BF-EC22151735FD</title>
    <desc>Created with sketchtool.</desc>
    <defs>
        <linearGradient x1="0%" y1="0%" x2="69.3649492%" y2="99.9999269%" id="linearGradient-1">
            <stop stop-color="#5EE0FE" offset="0%"></stop>
            <stop stop-color="#0293D1" offset="100%"></stop>
        </linearGradient>
        <linearGradient x1="73.2001815%" y1="89.9633042%" x2="29.5022524%" y2="0.896965438%" id="linearGradient-2">
            <stop stop-color="#FD5039" offset="0%"></stop>
            <stop stop-color="#A70B00" offset="100%"></stop>
        </linearGradient>
    </defs>
    <g id="Symbols" stroke="none" stroke-width="1" fill="none" fill-rule="evenodd">
      <g id="Logo">
        <g>
            <path d="M17.8998503,40.9853593 C14.664521,40.9850898 11.7412575,39.0001198 10.5476647,35.9931138 L0.503413174,10.6844311 C0.170508982,9.79640719 0,8.85598802 0,7.90778443 C0,3.56976048 3.56982036,0 7.90805389,0 C11.087006,0 13.9701497,1.91676647 15.2001497,4.84820359 L25.2506287,30.1595808 C25.6177545,31.0868263 25.8063174,32.0751497 25.8063174,33.0724551 C25.8063174,37.4109281 22.2382934,40.9818263 17.8998503,40.9853593 Z" id="Fill-1" fill="url(#linearGradient-1)"></path>
            <path d="M31.0640719,23.1011976 C27.8298204,23.1 24.907994,21.1155689 23.7145808,18.1095808 L20.8826647,10.9838323 C20.4969162,10.0365269 20.2985329,9.02365269 20.2985329,8.0008982 C20.2985329,3.66257485 23.8683533,0.0928143713 28.2065569,0.0928143713 C31.4661677,0.0928143713 34.4062874,2.10808383 35.5820359,5.14820359 L38.4113772,12.2739521 C38.7787425,13.2017964 38.9676647,14.1907186 38.9676647,15.1883234 C38.9676647,19.5257485 35.4011976,23.0961078 31.0640719,23.1011976 Z" id="Fill-4" fill="url(#linearGradient-2)"></path>
            <path d="M57.7236527,40.0688024 C58.1919162,40.0688024 58.5329341,40.1705689 58.7464072,40.3741018 C58.9601796,40.5776347 59.0670659,40.8422455 59.0670659,41.1679042 C59.0670659,41.6971257 58.9092814,42.1652695 58.594012,42.5723353 C58.2784431,42.9794012 57.7847305,43.1931437 57.1131737,43.2134731 C55.4847305,43.2541916 54.0398204,43.1320659 52.7778443,42.8471257 C51.3326347,45.8798503 49.5874251,48.3986527 47.5416168,50.403503 C45.4961078,52.4083832 43.445509,53.4108084 41.3898204,53.4108084 C39.2730539,53.4108084 37.695509,52.1794012 36.657485,49.7165569 C35.6194611,47.2537425 35.1002994,43.9258683 35.1002994,39.7329641 C35.1002994,36.1505988 35.3547904,32.9347305 35.8637725,30.0853293 C36.0467066,29.0269461 36.3062874,28.3092814 36.6422156,27.9326347 C36.9781437,27.5562874 37.552994,27.3679641 38.3670659,27.3679641 C39.710479,27.3679641 40.3823353,27.9479042 40.3823353,29.1080838 C40.3823353,29.2302395 40.361976,29.4541916 40.3212575,29.7799401 C39.710479,33.4437126 39.4050898,36.7613772 39.4050898,39.7329641 C39.4050898,42.8471257 39.6646707,45.2132635 40.1838323,46.8314072 C40.7026946,48.449521 41.4814371,49.2585928 42.5194611,49.2585928 C43.5778443,49.2585928 44.7278443,48.5258683 45.9694611,47.0603892 C47.2110778,45.5948802 48.3508982,43.7528743 49.3889222,41.5342814 C48.1473054,40.7608383 47.2110778,39.7584132 46.5799401,38.527006 C45.9491018,37.2955689 45.6335329,35.8757485 45.6335329,34.2679641 C45.6335329,32.6598802 45.8829341,31.301497 46.3814371,30.1919162 C46.8802395,29.0826347 47.561976,28.2532934 48.4272455,27.7038922 C49.2922156,27.1541916 50.2538922,26.8793413 51.3122754,26.8793413 C52.6149701,26.8793413 53.6479042,27.3476048 54.4110778,28.2838323 C55.1745509,29.2200599 55.555988,30.5023952 55.555988,32.1308383 C55.555988,34.4715569 55.0473054,37.0257485 54.0296407,39.794012 C55.1083832,39.9772156 56.3398204,40.0688024 57.7236527,40.0688024 Z M48.7170659,34.0541916 C48.7170659,36.0488024 49.3583832,37.5245509 50.6407186,38.4811976 C51.4344311,36.201497 51.8314371,34.3188623 51.8314371,32.8329341 C51.8314371,31.9781437 51.7194611,31.3520958 51.495509,30.9553892 C51.2715569,30.5583832 50.9661677,30.3598802 50.5796407,30.3598802 C50.0299401,30.3598802 49.5823353,30.6805389 49.2362275,31.3215569 C48.8901198,31.9628743 48.7170659,32.8736527 48.7170659,34.0541916 Z" id="Fill-7" fill="#FFFFFF"></path>
            <path d="M60.1050898,37.0155689 C59.2502994,37.0155689 58.6092814,36.8173653 58.1817365,36.4203593 C57.7541916,36.0233533 57.5407186,35.4688623 57.5407186,34.7562874 C57.5407186,34.044012 57.8203593,33.4488024 58.3802395,32.9703593 C58.9398204,32.4919162 59.6371257,32.252994 60.4715569,32.252994 C61.2245509,32.252994 61.8353293,32.4362275 62.3032934,32.8023952 C62.7715569,33.1688623 63.0056886,33.6877246 63.0056886,34.3595808 C63.0056886,35.1736527 62.741018,35.8200599 62.2116766,36.2982036 C61.6826347,36.7766467 60.9805389,37.0155689 60.1050898,37.0155689 Z M59.8607784,53.4108084 C58.538024,53.4108084 57.5760479,52.9426647 56.9757485,52.0063772 C56.3754491,51.0700898 56.0751497,49.828503 56.0751497,48.2816168 C56.0751497,47.3656886 56.1922156,46.1902395 56.4263473,44.7552994 C56.6601796,43.3203293 56.960479,41.9820659 57.3269461,40.740479 C57.5101796,40.0891617 57.7541916,39.6413772 58.0595808,39.3971257 C58.3649701,39.1528743 58.8532934,39.0307485 59.5251497,39.0307485 C60.5631737,39.0307485 61.0820359,39.3767665 61.0820359,40.0688024 C61.0820359,40.5776347 60.8889222,41.7581737 60.5020958,43.6103892 C60.0134731,45.8493114 59.7694611,47.3656886 59.7694611,48.159491 C59.7694611,48.7701198 59.8505988,49.2382335 60.0134731,49.5639222 C60.1763473,49.8895808 60.4511976,50.0523952 60.838024,50.0523952 C61.2041916,50.0523952 61.6622754,49.7979641 62.2116766,49.2891317 C62.7613772,48.7802695 63.494012,47.9762874 64.4098802,46.8771856 C64.6541916,46.5922455 64.9290419,46.4497605 65.2344311,46.4497605 C65.4991018,46.4497605 65.707485,46.5718862 65.8601796,46.8161377 C66.0128743,47.0603892 66.0892216,47.3962275 66.0892216,47.8236527 C66.0892216,48.6378144 65.8958084,49.2687725 65.5092814,49.7165569 C63.494012,52.1794012 61.6113772,53.4108084 59.8607784,53.4108084 Z" id="Fill-8" fill="#FFFFFF"></path>
            <path d="M66.7302395,53.4108084 C65.8143713,53.4108084 65.0664671,52.9884431 64.4862275,52.1437725 C63.9062874,51.2990719 63.6161677,50.2457784 63.6161677,48.9838323 C63.6161677,47.4572754 63.7179641,46.0579341 63.9215569,44.7858383 C64.1251497,43.5137126 64.4607784,42.1652695 64.9290419,40.740479 C65.1326347,40.1298503 65.4176647,39.6922455 65.7838323,39.4276647 C66.1502994,39.1630539 66.7302395,39.0307485 67.5242515,39.0307485 C67.9718563,39.0307485 68.2823353,39.101976 68.4553892,39.2444611 C68.6284431,39.3869461 68.7149701,39.6006587 68.7149701,39.8856287 C68.7149701,40.0484431 68.602994,40.597994 68.3790419,41.5342814 C68.1754491,42.2873653 68.0125749,42.9692216 67.8904192,43.5798503 C67.4835329,45.717006 67.2799401,47.1417964 67.2799401,47.8541916 C67.2799401,48.2816168 67.3308383,48.5818263 67.4326347,48.7548503 C67.5344311,48.9278443 67.6973054,49.0143413 67.9209581,49.0143413 C68.2263473,49.0143413 68.6080838,48.7090419 69.0658683,48.0984132 C69.5239521,47.4878144 70.0125749,46.5617066 70.5314371,45.3201198 C71.0505988,44.0785329 71.5541916,42.551976 72.0428144,40.740479 C72.2056886,40.1298503 72.4547904,39.6922455 72.7907186,39.4276647 C73.1266467,39.1630539 73.6302395,39.0307485 74.3020958,39.0307485 C74.7700599,39.0307485 75.0958084,39.0867365 75.2790419,39.1986826 C75.4622754,39.3106287 75.5538922,39.5192515 75.5538922,39.8245509 C75.5538922,40.3334132 75.2994012,41.7276347 74.7904192,44.0072754 C74.2206587,46.6125749 73.9356287,48.2205389 73.9356287,48.8311677 C73.9356287,49.2179042 74.0170659,49.5181138 74.1799401,49.7318263 C74.3428144,49.9455389 74.5565868,50.0523952 74.8209581,50.0523952 C75.2281437,50.0523952 75.7116766,49.8030539 76.2712575,49.3044012 C76.8311377,48.8057186 77.5790419,47.9966467 78.5152695,46.8771856 C78.7595808,46.5922455 79.0344311,46.4497605 79.339521,46.4497605 C79.6041916,46.4497605 79.8128743,46.5718862 79.9655689,46.8161377 C80.1182635,47.0603892 80.1946108,47.3962275 80.1946108,47.8236527 C80.1946108,48.6378144 80.0011976,49.2687725 79.6143713,49.7165569 C78.7392216,50.7953293 77.7979042,51.6807186 76.7904192,52.3727545 C75.7826347,53.0647904 74.638024,53.4108084 73.3556886,53.4108084 C72.3784431,53.4108084 71.6610778,53.0342515 71.2032934,52.2811677 C70.7452096,51.5280539 70.5161677,50.4696707 70.5161677,49.1059581 C70.1700599,50.49 69.6511976,51.553503 68.958982,52.2964371 C68.2670659,53.0393413 67.5242515,53.4108084 66.7302395,53.4108084 Z" id="Fill-9" fill="#FFFFFF"></path>
            <path d="M89.2928144,46.4497605 C89.5571856,46.4497605 89.7658683,46.5718862 89.9185629,46.8161377 C90.0712575,47.0603892 90.1476048,47.3962275 90.1476048,47.8236527 C90.1476048,48.6378144 89.9541916,49.2687725 89.5673653,49.7165569 C88.6922156,50.7953293 87.7407186,51.6807186 86.7128743,52.3727545 C85.6850299,53.0647904 84.5197605,53.4108084 83.2170659,53.4108084 C81.4260479,53.4108084 80.0979042,52.5966467 79.2326347,50.9683234 C78.3676647,49.3400299 77.9353293,47.2333832 77.9353293,44.6484431 C77.9353293,42.1652695 78.2556886,39.3360479 78.897006,36.1607784 C79.538024,32.9856287 80.4844311,30.2580838 81.7362275,27.9784431 C82.988024,25.6988024 84.4790419,24.558982 86.208982,24.558982 C87.1859281,24.558982 87.954491,25.011976 88.5140719,25.9176647 C89.0739521,26.8233533 89.3538922,28.1209581 89.3538922,29.810479 C89.3538922,32.2326347 88.6820359,35.0413174 87.3386228,38.2369461 C85.995509,41.432515 84.1736527,44.5975449 81.8736527,47.7320659 C82.0161677,48.5665569 82.2502994,49.1619162 82.5760479,49.5181138 C82.901497,49.8743114 83.3290419,50.0523952 83.8580838,50.0523952 C84.6928144,50.0523952 85.4254491,49.8132335 86.0562874,49.3349401 C86.6874251,48.8566168 87.4913174,48.0373653 88.4682635,46.8771856 C88.7125749,46.5922455 88.9874251,46.4497605 89.2928144,46.4497605 Z M85.5374251,27.5817365 C85.0691617,27.5817365 84.5401198,28.4263473 83.9497006,30.1158683 C83.3595808,31.8050898 82.8404192,33.901497 82.3928144,36.4050898 C81.9449102,38.9086228 81.7005988,41.3103892 81.6598802,43.6103892 C83.1050898,41.228982 84.2550898,38.842485 85.1098802,36.4508982 C85.9649701,34.0592814 86.3922156,31.8763473 86.3922156,29.9020958 C86.3922156,28.3550898 86.1071856,27.5817365 85.5374251,27.5817365 Z" id="Fill-10" fill="#FFFFFF"></path>
            <path d="M98.360479,39.0307485 C98.8284431,39.0307485 99.1541916,39.0918263 99.3374251,39.2139222 C99.5206587,39.3360479 99.6122754,39.5396108 99.6122754,39.8245509 C99.6122754,40.3130539 99.3476048,42.0533234 98.8182635,45.0453293 C98.3502994,47.9152395 98.0754491,49.6147904 97.994012,50.143982 C97.241018,55.3749401 96.202994,59.516976 94.8799401,62.5700599 C93.5568862,65.6231437 91.7961078,67.1497006 89.5979042,67.1497006 C88.5598802,67.1497006 87.7152695,66.8291317 87.0640719,66.1879641 C86.4125749,65.5468263 86.0868263,64.7072156 86.0868263,63.6691916 C86.0868263,62.7125449 86.3056886,61.7355689 86.7434132,60.7382036 C87.1808383,59.7408683 87.9952096,58.5959581 89.1859281,57.303503 C90.3766467,56.011018 92.0607784,54.5302695 94.2386228,52.8612575 L94.3302395,52.1590419 C94.4727545,51.4059281 94.6356287,50.3271856 94.8188623,48.9227545 C94.4116766,50.3882335 93.8419162,51.5026048 93.108982,52.2658982 C92.3763473,53.0291617 91.602994,53.4108084 90.7886228,53.4108084 C89.8727545,53.4108084 89.1248503,52.9884431 88.5446108,52.1437725 C87.9646707,51.2990719 87.6745509,50.2457784 87.6745509,48.9838323 C87.6745509,47.4572754 87.7763473,46.0579341 87.9799401,44.7858383 C88.1835329,43.5137126 88.5191617,42.1652695 88.9874251,40.740479 C89.191018,40.1298503 89.4757485,39.6922455 89.8422156,39.4276647 C90.2086826,39.1630539 90.7886228,39.0307485 91.5826347,39.0307485 C92.0302395,39.0307485 92.3407186,39.101976 92.5137725,39.2444611 C92.6868263,39.3869461 92.7733533,39.6006587 92.7733533,39.8856287 C92.7733533,40.0484431 92.6613772,40.597994 92.4374251,41.5342814 C92.2338323,42.2873653 92.0709581,42.9692216 91.9488024,43.5798503 C91.7859281,44.4143713 91.6437126,45.2132635 91.5215569,45.9765269 C91.3994012,46.7397904 91.3383234,47.3656886 91.3383234,47.8541916 C91.3383234,48.6276347 91.5520958,49.0143413 91.9793413,49.0143413 C92.2847305,49.0143413 92.6664671,48.7090419 93.1242515,48.0984132 C93.5823353,47.4878144 94.0706587,46.5617066 94.5898204,45.3201198 C95.108982,44.0785329 95.6125749,42.551976 96.1011976,40.740479 C96.2637725,40.1298503 96.5131737,39.6922455 96.8491018,39.4276647 C97.1850299,39.1630539 97.6886228,39.0307485 98.360479,39.0307485 Z M89.9338323,64.1882036 C90.4428144,64.1882036 91.0125749,63.5979341 91.6437126,62.4174251 C92.2745509,61.2368862 92.9053892,59.2727246 93.5365269,56.5249401 C91.9691617,57.8479641 90.8344311,59.0539222 90.1323353,60.1428743 C89.4302395,61.2317964 89.0790419,62.1833533 89.0790419,62.997485 C89.0790419,63.343503 89.1452096,63.6284731 89.2775449,63.8523653 C89.4098802,64.0762575 89.6284431,64.1882036 89.9338323,64.1882036 Z" id="Fill-11" fill="#FFFFFF"></path>
        </g>
      </g>
    </g>
</svg>
