<?xml version="1.0" encoding="UTF-8"?>
<svg width="21px" height="17px" viewBox="0 0 21 17" version="1.1" xmlns="http://www.w3.org/2000/svg" xmlns:xlink="http://www.w3.org/1999/xlink">
    <!-- Generator: sketchtool 49.2 (51160) - http://www.bohemiancoding.com/sketch -->
    <title>C2D6AF18-F7A5-4F5B-8E1E-FB166DE0CCA2</title>
    <desc>Created with sketchtool.</desc>
    <defs></defs>
    <g id="Page-1" stroke="none" stroke-width="1" fill="none" fill-rule="evenodd" opacity="0.699999988" stroke-opacity="0.536231884">
        <g id="Extra-large:-Desktops---Landing" transform="translate(-1327.000000, -542.000000)" stroke="#FFFFFF">
            <g id="1---TOP" transform="translate(0.000000, -7.000000)">
                <g id="Social" transform="translate(1162.000000, 542.000000)">
                    <g id="Elements/Icons/Social/Medium" transform="translate(166.000000, 8.000000)">
                        <path d="M9.97606406,8.02166711 L13.4112943,-0.5 L19.5,-0.5 L19.5,0.531579358 L19.3450315,0.67933498 L17.7852333,2.16213028 C17.802582,2.14897973 17.811518,2.12653637 17.8146592,2.18694886 L17.8077449,12.8959159 C17.8115181,12.8734637 17.802582,12.8510203 17.8324805,12.8785628 L19.4645192,14.4719109 L19.4645192,15.5 L11.0135388,15.5 L11.0135388,14.4702612 L11.1662598,14.3228214 L12.6955707,12.8464697 C12.7224549,12.8197427 12.728544,12.8124408 12.721543,12.8252161 C12.6991451,12.8660878 12.6988795,12.868539 12.6988795,12.7777778 L12.6988795,6.8097772 L9.27210451,15.4647266 L8.03565826,15.4647266 L3.88698988,6.46468105 L3.88383495,11.4785072 C3.86330316,11.6290376 3.91362241,11.7807263 4.04832388,11.9207467 L6.15919701,14.4669617 L6.15919701,15.4647266 L-0.5,15.4647266 L-0.5,14.4669617 L-0.384925197,14.3281542 L1.63696098,11.8916697 C1.73928504,11.7862164 1.78489545,11.6392403 1.75303455,11.4109347 L1.75303455,3.05996472 L1.75560428,3.00933739 C1.76300742,2.93659905 1.73503622,2.86450521 1.62969702,2.76309539 L-0.260504202,0.498722761 L-0.260504202,-0.5 L6.06869329,-0.5 L9.97606406,8.02166711 Z" id="Combined-Shape"></path>
                    </g>
                </g>
            </g>
        </g>
    </g>
</svg>