<?xml version="1.0" encoding="UTF-8"?>
<svg width="25px" height="21px" viewBox="0 0 25 21" version="1.1" xmlns="http://www.w3.org/2000/svg" xmlns:xlink="http://www.w3.org/1999/xlink">
    <!-- Generator: sketchtool 49.2 (51160) - http://www.bohemiancoding.com/sketch -->
    <title>02390DBB-BDB3-45F5-BD0D-B91FA06C3D96</title>
    <desc>Created with sketchtool.</desc>
    <defs></defs>
    <g id="Symbols" stroke="none" stroke-width="1" fill="none" fill-rule="evenodd" stroke-opacity="0.536231884">
        <g id="Elements/Icons/Social/Reddit" stroke="#FFFFFF">
            <path d="M23.457435,12.8339701 C23.4781286,13.0170932 23.4887673,13.1943994 23.4887673,13.3702404 C23.4887673,17.561419 18.505195,20.8733299 12.4510486,20.8733299 C6.39731139,20.8733299 1.41434271,17.5614539 1.41434271,13.3702404 C1.41434271,13.1740068 1.42794296,12.976213 1.45434598,12.7697387 C0.674886994,12.187497 0.203723785,11.2688563 0.203723785,10.281913 C0.203723785,8.5650981 1.59851488,7.1699335 3.31469054,7.1699335 C3.96155122,7.1699335 4.59028197,7.38070741 5.11756718,7.76104079 C6.98069078,6.63595578 9.35566451,5.96838698 11.8910005,5.88197558 L13.4088351,1.08133139 C13.545944,0.648481804 13.9943859,0.394000138 14.4331983,0.499512785 L18.3021043,1.4102589 C18.7697627,0.628956393 19.6176371,0.127007673 20.5597647,0.127007673 C22.0132083,0.127007673 23.1953964,1.30906678 23.1953964,2.76263939 C23.1953964,4.2162916 22.0131287,5.39894629 20.5597647,5.39894629 C19.2216527,5.39894629 18.1138478,4.39769591 17.945576,3.10502391 L14.818533,2.36852545 L13.6942368,5.92307111 C16.0014513,6.09772004 18.1428155,6.75338789 19.8423967,7.79221292 C20.3758419,7.39070424 21.0156413,7.16959591 21.6853095,7.16959591 C23.4017425,7.16959591 24.7976266,8.56535546 24.7976263,10.2824314 C24.7965546,11.3162468 24.2911051,12.2595051 23.457435,12.8339701 Z" id="Path"></path>
            <path d="M3.52682305,9.04002817 C3.44567051,9.0245473 3.36327612,9.01662404 3.28059335,9.01662404 C2.52060754,9.01662404 1.90153453,9.63646494 1.90153453,10.3977084 C1.90153453,10.5961155 1.94498091,10.7890448 2.02550091,10.9648066 C2.38625994,10.2731032 2.8928851,9.62560812 3.52682305,9.04002817 Z M20.699867,3.73658312 C21.1976966,3.73658312 21.6035908,3.33028456 21.6035908,2.83150895 C21.6035908,2.3329361 21.1978994,1.92710997 20.699867,1.92710997 C20.2008212,1.92710997 19.7941176,2.3332742 19.7941176,2.83150895 C19.7941176,3.3299465 20.2010241,3.73658312 20.699867,3.73658312 Z M7.97826087,12.0968286 C7.97826087,12.6778778 8.45157428,13.1511202 9.03289003,13.1511202 C9.61410794,13.1511202 10.0871816,12.6779756 10.0871816,12.0968286 C10.0871816,11.5157172 9.61380585,11.0421995 9.03289003,11.0421995 C8.45187639,11.0421995 7.97826087,11.515815 7.97826087,12.0968286 Z M12.6388148,17.3700491 C12.6308851,17.3691002 12.6224389,17.3680925 12.6134322,17.3670179 C12.6044379,17.3680931 12.5960044,17.3691012 12.5880891,17.3700499 C10.9690398,17.3683454 9.86870496,17.026441 9.19476508,16.3522107 C9.24734647,16.4047921 9.24734647,16.4894769 9.19552377,16.5415452 C9.14192362,16.5949004 9.057882,16.5949004 9.0059535,16.5432169 C9.75236266,17.2904176 10.9313493,17.6371201 12.5880306,17.6388173 C12.595896,17.6396574 12.6043448,17.6405569 12.6134322,17.6415243 C12.6225395,17.6405569 12.6310077,17.6396574 12.6388935,17.6388165 C14.2878523,17.6370245 15.4640555,17.2931662 16.212001,16.5520861 C16.1411186,16.5933823 16.076041,16.5860426 16.0330123,16.5432169 C15.9794042,16.4893626 15.979348,16.404336 16.0323618,16.3512763 L16.031348,16.3522869 C15.3579254,17.0262901 14.2575742,17.3682446 12.6388148,17.3700491 Z M12.4532687,18.3399659 C12.4482035,18.3382848 12.4469254,18.3377571 12.4443692,18.3367017 C12.451649,18.3399284 12.4572274,18.3424009 12.4632628,18.3445064 Z M12.7242156,16.6534955 C12.7390215,16.6562115 12.7463146,16.6590076 12.759237,16.6639618 C12.748678,16.6597321 12.7428971,16.6574164 12.7283834,16.6549356 Z M16.1997136,13.1511202 C16.7807272,13.1511202 17.2540051,12.6778423 17.2540051,12.0968286 C17.2540051,11.5157172 16.7806294,11.0421995 16.1997136,11.0421995 C15.6185311,11.0421995 15.145422,11.5153086 15.145422,12.0968286 C15.145422,12.6779843 15.6188417,13.1511202 16.1997136,13.1511202 Z M21.5273842,9.05569392 C22.1823059,9.66432256 22.7000213,10.3393116 23.0599858,11.0608131 C23.1701407,10.8618067 23.2301279,10.6352099 23.2301279,10.3977084 C23.2301279,9.6363112 22.6109013,9.01662404 21.8497187,9.01662404 C21.7401288,9.01662404 21.6321337,9.02988339 21.5273842,9.05569392 Z" id="Combined-Shape"></path>
        </g>
    </g>
</svg>
