<?xml version="1.0" encoding="UTF-8"?>
<svg width="22px" height="20px" viewBox="0 0 22 20" version="1.1" xmlns="http://www.w3.org/2000/svg" xmlns:xlink="http://www.w3.org/1999/xlink">
    <!-- Generator: sketchtool 49.2 (51160) - http://www.bohemiancoding.com/sketch -->
    <title>A8C3F947-5F32-4461-B14F-28CFE52E5DBE</title>
    <desc>Created with sketchtool.</desc>
    <defs></defs>
    <g id="Symbols" stroke="none" stroke-width="1" fill="none" fill-rule="evenodd" stroke-opacity="0.536231884">
        <g id="Elements/Icons/Social/Telegram" stroke="#FFFFFF">
            <path d="M5.09292976,12.0205694 L0.332678738,10.2438962 L0.332061855,10.2436655 C-0.60521317,9.89243808 -0.612684159,8.56896994 0.321708129,8.20861344 L20.8005642,0.308497127 C21.6042517,-0.00234003476 22.4330488,0.701139085 22.2580261,1.54498792 L18.5829177,19.2228919 C18.4224727,19.9959685 17.516887,20.3457281 16.8781935,19.8814912 L11.8613336,16.2391509 C11.7403059,16.1512976 11.5752154,16.1559331 11.4594198,16.2502839 L8.67843441,18.5173911 C8.0811095,19.0057466 7.18028365,18.734166 6.95155404,17.9978767 L5.09292976,12.0205694 Z M8.41142988,10.0408073 C8.22779238,10.1542562 8.14166857,10.375877 8.20087436,10.583045 L8.93002269,13.1450694 L9.04533358,12.2905312 C9.11251195,11.7933556 9.34976004,11.335287 9.71749314,10.9929834 L15.3179972,5.78705078 L8.41142988,10.0408073 Z M8.77123743,14.3217845 C8.77120915,14.3219923 8.77118109,14.3222003 8.77115323,14.3224085 L8.77123743,14.3217845 Z M17.7657895,3.51171246 L17.7664367,3.51111087 C17.7662218,3.51131016 17.7660073,3.51150955 17.7657932,3.51170904 Z" id="Combined-Shape"></path>
        </g>
    </g>
</svg>
