<?xml version="1.0" encoding="UTF-8"?>
<svg width="22px" height="18px" viewBox="0 0 22 18" version="1.1" xmlns="http://www.w3.org/2000/svg" xmlns:xlink="http://www.w3.org/1999/xlink">
    <!-- Generator: sketchtool 49.2 (51160) - http://www.bohemiancoding.com/sketch -->
    <title>9ADA4343-6714-4B82-9BA8-F166782899A8</title>
    <desc>Created with sketchtool.</desc>
    <defs></defs>
    <g id="Symbols" stroke="none" stroke-width="1" fill="none" fill-rule="evenodd" stroke-opacity="0.536231884">
        <g id="Elements/Icons/Social/Twitter" fill-rule="nonzero" stroke="#FFFFFF">
            <path d="M21.3832044,2.02897217 C20.6107817,2.37148571 19.7798812,2.60314824 18.9084959,2.70660918 C19.7981957,2.17356043 20.4809736,1.33012887 20.8032448,0.323473223 C19.9707377,0.817322484 19.0482645,1.17558008 18.0673135,1.36868574 C17.2813959,0.531680328 16.1616401,0.00859210667 14.9217154,0.00859210667 C12.5427564,0.00859210667 10.6133063,1.93804221 10.6133063,4.31700118 C10.6133063,4.65469511 10.6515419,4.98339244 10.7254425,5.29891617 C7.1447944,5.11930541 3.96995735,3.40416725 1.84483113,0.796758819 C1.47404255,1.4329472 1.26133714,2.17356043 1.26133714,2.96301238 C1.26133714,4.45741245 2.02251404,5.77670007 3.17793495,6.54912272 C2.4720229,6.52695252 1.80723818,6.33320424 1.22663595,6.00964783 C1.22631465,6.02796234 1.22631465,6.04627686 1.22631465,6.06427006 C1.22631465,8.15180334 2.71203942,9.89296739 4.68261686,10.2884966 C4.3214675,10.3874593 3.94007578,10.4398324 3.54775961,10.4398324 C3.26950752,10.4398324 2.99993073,10.4131638 2.73710139,10.3630399 C3.28525158,12.0743224 4.87604383,13.3200306 6.76179615,13.3550531 C5.28699582,14.5107954 3.42951854,15.1993568 1.41042371,15.1993568 C1.06341187,15.1993568 0.719613095,15.1791145 0.383204392,15.1389511 C2.28887776,16.3618465 4.55409395,17.0748273 6.98703254,17.0748273 C14.9117548,17.0748273 19.2455472,10.5098773 19.2455472,4.81599135 C19.2455472,4.62931183 19.2413702,4.44327493 19.2330162,4.25884456 C20.0754838,3.65157384 20.8058152,2.89296739 21.3832044,2.02897217 Z" id="Combined-Shape"></path>
        </g>
    </g>
</svg>
